<svg xmlns="http://www.w3.org/2000/svg" fill="none" viewBox="0 0 14 13">
  <ellipse cx="6.538" cy="6.438" rx="6.538" ry="6.438" fill="#F5B300"/>
  <path fill-rule="evenodd" clip-rule="evenodd" d="M4.879 3.057l.005.002c-.024.017-.02.012-.005-.002zm.047.013l.015-.053-.057.042.042.01zm0 0l-.078.292c-.031.117-.062.234-.093.345-.02.04 0 .061.041.061l.1.024c.138.034.287.07.436.118.186.061.29.244.248.407-.248 1.056-.516 2.091-.784 3.127-.02.142-.144.223-.31.183a3.588 3.588 0 01-.453-.102c-.062 0-.082 0-.103.061a10.065 10.065 0 01-.278.64c-.016.035-.031.07-.052.111.495.122.97.244 1.444.366 0 .024-.007.04-.013.055-.004.01-.008.018-.008.026-.103.325-.185.67-.268 1.016-.02.04-.02.06.041.08.207.041.413.082.619.143.055.018.061.004.076-.027l.006-.014c.021-.091.047-.182.073-.274a5.38 5.38 0 00.072-.274c.02-.091.046-.183.072-.274a5.38 5.38 0 00.072-.274c.186.04.35.081.516.122.03.014.027.029.024.051a.139.139 0 00-.003.03c-.104.325-.186.67-.269 1.015-.02.04-.02.061.042.082.092.02.19.045.288.07.098.026.196.051.29.072.098.039.102.022.12-.051l.003-.01.124-.498c.04-.167.082-.335.123-.497.021-.061.062-.082.124-.061.413.06.825.101 1.258.04.33-.04.619-.182.846-.446.185-.224.289-.468.371-.752.062-.223.083-.467.041-.69a1.281 1.281 0 00-.495-.69 1.314 1.314 0 00-.123-.082 1.314 1.314 0 01-.124-.081.13.13 0 00.055-.013c.01-.004.019-.008.027-.008.165-.06.33-.142.454-.264.165-.162.248-.365.31-.588.082-.325.061-.65-.124-.955a1.74 1.74 0 00-.537-.487l-.68-.305c-.062-.02-.083-.04-.062-.101a1.67 1.67 0 00.082-.305c.062-.244.124-.487.186-.751-.01 0-.015-.006-.02-.01-.006-.006-.01-.01-.021-.01a6.542 6.542 0 00-.284-.071c-.12-.03-.238-.058-.355-.092-.042-.02-.062 0-.062.04l-.062.244a10.68 10.68 0 00-.207.772.24.24 0 00-.02.025c-.014.018-.028.036-.041.036l-.258-.061c-.088-.02-.176-.04-.258-.061.02-.04.02-.061.02-.081a40.3 40.3 0 00.124-.498l.124-.497c.02-.041.02-.061-.041-.082a6.38 6.38 0 01-.598-.142c-.062-.02-.083 0-.103.061l-.124.508a75.05 75.05 0 00-.124.507c-.02.061-.041.082-.103.061-.113-.03-.227-.055-.34-.08a8.243 8.243 0 01-.34-.082 9.254 9.254 0 00-.34-.081 9.553 9.553 0 01-.294-.07zm1.005 5.004c.02 0 .04.02.04.02l.157.04c.284.07.58.146.875.163.248.02.474.02.701-.061.392-.122.557-.63.33-.954-.103-.163-.268-.264-.433-.366-.36-.197-.779-.28-1.18-.358l-.037-.008c-.056-.018-.061-.003-.077.046l-.005.015c-.02.102-.047.198-.072.295a4.924 4.924 0 00-.073.294c-.047.162-.087.324-.128.49-.031.125-.063.252-.098.384zM7.89 5.962c-.082.02-.186.04-.227.04-.24 0-.446-.032-.66-.065a7.69 7.69 0 00-.247-.036 3.408 3.408 0 01-.114-.03 2 2 0 00-.113-.031c-.042-.02-.062-.04-.042-.082.124-.426.227-.832.33-1.259.021-.06.042-.08.104-.06l.182.046c.242.061.473.12.705.217.185.082.37.204.474.386a.59.59 0 01-.392.874z" fill="#fff"/>
</svg>
