<svg xmlns="http://www.w3.org/2000/svg" fill="none" viewBox="0 0 208 308">
  <path fill-rule="evenodd" clip-rule="evenodd" d="M207.875 298.068v.073c-.018 5.413-4.487 9.822-9.967 9.822h-36.48a4.509 4.509 0 01-4.511-4.511 4.509 4.509 0 014.511-4.511h36.48c.5 0 .939-.385.945-.83 0-8.8-7.128-15.922-15.886-15.922-.655 0-1.317.042-2.033.132a4.502 4.502 0 01-4.992-3.596c-1.257-6.358-6.875-10.972-13.365-10.972a13.51 13.51 0 00-8.361 2.875 4.525 4.525 0 01-4.307.686 4.51 4.51 0 01-2.869-3.278c-1.365-6.195-6.959-10.688-13.305-10.688-1.311 0-2.61.192-3.861.559a4.504 4.504 0 01-3.717-.535 4.48 4.48 0 01-2.027-3.158c-1.414-9.985-10.093-17.516-20.192-17.516-10.1 0-18.779 7.531-20.192 17.516a4.52 4.52 0 01-2.027 3.158 4.53 4.53 0 01-3.718.535 13.566 13.566 0 00-3.861-.559c-6.352 0-11.946 4.499-13.305 10.688a4.504 4.504 0 01-2.875 3.278 4.516 4.516 0 01-4.301-.686 13.509 13.509 0 00-8.36-2.875c-6.49 0-12.109 4.614-13.366 10.972a4.512 4.512 0 01-4.998 3.596 16.05 16.05 0 00-2.033-.132c-8.752 0-15.88 7.122-15.88 15.879 0 .488.44.873.939.873h133.428a4.509 4.509 0 014.511 4.511 4.509 4.509 0 01-4.511 4.511H9.961c-5.474 0-9.943-4.409-9.961-9.822v-.073c0-13.491 10.785-24.51 24.186-24.889 3.326-8.565 11.669-14.448 21.112-14.448 3.062 0 6.027.601 8.776 1.762 3.843-7.296 11.549-12.168 20.066-12.168.565 0 1.13.024 1.696.066 2.304-7.404 7.464-13.503 14.099-17.124V217.18c-5.495-6.915-13.898-6.807-22.086-6.702-.971.012-1.94.025-2.9.026-19.807 0-35.927-16.114-35.927-35.921v-8.626c0-4.595 3.741-8.33 8.33-8.33h8.632c19.807 0 35.92 16.113 35.92 35.921v8.625a1.533 1.533 0 01-.011.204c2.514.59 5.311 1.558 8.042 3.122v-57.286c-34.556-6.574-60.763-37.003-60.763-73.448 0-17.004 5.564-33.028 16.096-46.345a4.518 4.518 0 016.334-.74 4.514 4.514 0 01.74 6.34c-9.257 11.705-14.147 25.792-14.147 40.745 0 36.252 29.49 65.743 65.743 65.743 36.251 0 65.742-29.491 65.742-65.743 0-36.252-29.491-65.743-65.742-65.743-14.388 0-28.054 4.566-39.512 13.197a4.516 4.516 0 01-6.322-.89 4.51 4.51 0 01.89-6.316C72.034 5.191 87.577 0 103.938 0c41.226 0 74.765 33.54 74.765 74.765 0 36.445-26.207 66.874-60.763 73.448v57.286c2.731-1.564 5.528-2.532 8.042-3.122 0-.032-.003-.064-.006-.097a1.232 1.232 0 01-.006-.107v-8.625c0-19.808 16.114-35.921 35.921-35.921h8.631c4.59 0 8.331 3.735 8.331 8.33v8.626c0 19.807-16.114 35.927-35.921 35.927-1.05.096-2.424.061-4.004.021-6.137-.154-15.396-.387-20.988 6.649v14.087c6.635 3.621 11.795 9.72 14.099 17.124a22.91 22.91 0 011.696-.066c8.517 0 16.223 4.872 20.066 12.168a22.482 22.482 0 018.776-1.762c9.449 0 17.786 5.883 21.112 14.448 13.401.379 24.186 11.398 24.186 24.889zm-38.044-123.485v-7.934h-7.94c-14.833 0-26.899 12.066-26.899 26.899v7.933h7.934c14.833 0 26.905-12.066 26.905-26.898zm-60.913 53.526v-78.747a76.124 76.124 0 01-4.98.168 76.12 76.12 0 01-4.98-.168v78.747a29.008 29.008 0 014.98-.433c1.69 0 3.356.15 4.98.433zm-36.035-26.628v-7.933c0-14.833-12.066-26.899-26.9-26.899H38.05v7.934c0 14.832 12.066 26.898 26.899 26.898h7.934zm84.04-126.716c0 8.758-2.19 17.443-6.322 25.112a4.507 4.507 0 01-6.111 1.829 4.512 4.512 0 01-1.835-6.111c3.435-6.358 5.245-13.564 5.245-20.83 0-24.24-19.722-43.963-43.963-43.963-24.24 0-43.962 19.723-43.962 43.963 0 24.24 19.722 43.963 43.962 43.963a43.962 43.962 0 0028.343-10.37 4.514 4.514 0 016.357.536 4.515 4.515 0 01-.535 6.358 53.002 53.002 0 01-34.165 12.498c-29.214 0-52.985-23.77-52.985-52.985 0-29.214 23.771-52.985 52.985-52.985 29.215 0 52.986 23.77 52.986 52.985zm-35.801 13.36c1.335-7.952-2.983-15.14-10.743-17.889-.733-.259-1.485-.53-2.231-.806V55.343c2.346.53 3.874 1.462 4.018 1.558a4.51 4.51 0 006.225-1.287 4.514 4.514 0 00-1.263-6.256c-.222-.144-3.741-2.424-8.98-3.164v-2.099a4.513 4.513 0 00-4.511-4.511 4.51 4.51 0 00-4.511 4.511v2.629c-.241.066-.482.132-.728.204-5.24 1.576-9.155 6.051-10.213 11.67-.969 5.16.71 10.158 4.378 13.04 1.709 1.34 3.79 2.568 6.563 3.843v18.273c-1.89-.288-3.35-.962-5.63-2.454a4.513 4.513 0 00-6.25 1.305 4.514 4.514 0 001.311 6.244c4 2.616 6.918 3.633 10.569 3.976v2.61a4.505 4.505 0 004.511 4.511 4.509 4.509 0 004.511-4.511v-3.037c7.278-1.889 11.94-8.126 12.974-14.274zm-12.974-9.065c4.463 1.99 4.355 5.906 4.078 7.567-.385 2.28-1.768 4.667-4.078 6.075V79.06zm-9.022-22.472v8.656a17.73 17.73 0 01-.993-.704c-.998-.782-1.42-2.46-1.083-4.27.241-1.246.897-2.677 2.076-3.682z" fill="url(#HTiJvWJFDvJEa)"/>
  <defs>
    <linearGradient id="HTiJvWJFDvJEa" x1="169.923" y1="530.016" x2="549.331" y2="188.35" gradientUnits="userSpaceOnUse">
      <stop stop-color="#61E5F7"/>
      <stop offset="1" stop-color="#3B2AFF"/>
    </linearGradient>
  </defs>
</svg>
