<svg xmlns="http://www.w3.org/2000/svg" fill="none" viewBox="0 0 261 296">
  <path fill-rule="evenodd" clip-rule="evenodd" d="M138.279 4.855V50.98a4.855 4.855 0 01-9.71 0V4.855a4.855 4.855 0 019.71 0zm-4.855 200.588c-38.885 0-70.406-31.522-70.406-70.406.045-38.866 31.54-70.364 70.406-70.406 38.885 0 70.406 31.521 70.406 70.406 0 38.884-31.521 70.406-70.406 70.406zm60.695-70.406c0-33.522-27.173-60.696-60.695-60.696-33.506.038-60.657 27.19-60.695 60.696 0 33.522 27.173 60.695 60.695 60.695 33.522 0 60.695-27.173 60.695-60.695zm-61.956 26.45a4.61 4.61 0 011.664.057c6.003-.218 10.725-5.206 10.614-11.211-.109-6.005-5.01-10.816-11.017-10.816-10.386.003-19.17-7.681-20.55-17.974-1.379-10.294 5.069-20.021 15.088-22.757V94.07a4.856 4.856 0 019.71 0v4.419a20.77 20.77 0 0116.486 20.295 4.856 4.856 0 11-9.71 0c0-6.088-4.936-11.023-11.024-11.023-6.088 0-11.024 4.935-11.024 11.023s4.936 11.024 11.024 11.024c10.623.003 19.525 8.032 20.621 18.599 1.092 10.566-5.975 20.25-16.373 22.427v4.561a4.855 4.855 0 01-9.71 0v-4.855a20.771 20.771 0 01-15.272-20 4.855 4.855 0 019.71 0 11.039 11.039 0 009.763 10.946zm95.602 55.925l-38.034 17.971a30.977 30.977 0 00-26.41-16.297l-35.11-.965a37.084 37.084 0 01-15.957-4.12l-3.573-1.852a63.018 63.018 0 00-58.37.062l.223-8.094a4.856 4.856 0 00-4.72-4.988l-38.5-1.059a4.853 4.853 0 00-4.986 4.72L.002 287.278a4.856 4.856 0 004.72 4.988l38.5 1.06h.133a4.855 4.855 0 004.856-4.723l.111-4.042 10.002-5.355a17.157 17.157 0 0112.805-1.402l59.728 16.764.105.029c.069.018.139.033.21.049A63.979 63.979 0 00144.299 296a64.773 64.773 0 0027.062-5.906c.208-.095.41-.206.602-.332l86.6-56.015a4.86 4.86 0 001.591-6.468c-6.43-11.407-20.69-15.753-32.389-9.867zM9.843 282.693l2.058-74.782 28.792.791-2.058 74.785-28.792-.794zm157.144-1.271a55.049 55.049 0 01-33.665 3.758l-59.567-16.721a26.85 26.85 0 00-20.013 2.188l-5.112 2.738 1.368-49.721a53.368 53.368 0 0154.219-2.892l3.572 1.851a46.873 46.873 0 0020.156 5.206l35.113.965a21.297 21.297 0 0120.239 16.97l-52.3-1.444a4.86 4.86 0 00-4.989 4.72 4.857 4.857 0 004.721 4.988l57.717 1.589h.135a4.856 4.856 0 004.851-4.723 30.847 30.847 0 00-.469-6.299l39.01-18.432c.038-.017.075-.035.113-.054l.001-.001a14.834 14.834 0 0116.775 2.35l-81.875 52.964zm7.707-230.442V29.132a4.856 4.856 0 00-9.711 0V50.98a4.856 4.856 0 009.711 0zm-72.829-21.848V50.98a4.856 4.856 0 01-9.71 0V29.132a4.856 4.856 0 019.71 0z" fill="url(#PzmJ3H21gwYNa)"/>
  <defs>
    <linearGradient id="PzmJ3H21gwYNa" x1="213.171" y1="509.427" x2="575.108" y2="84.013" gradientUnits="userSpaceOnUse">
      <stop stop-color="#61E5F7"/>
      <stop offset="1" stop-color="#3B2AFF"/>
    </linearGradient>
  </defs>
</svg>
