<svg xmlns="http://www.w3.org/2000/svg" fill="none" viewBox="0 0 258 174">
  <path fill-rule="evenodd" clip-rule="evenodd" d="M124.894 35.198C124.894 15.461 154.071 0 191.316 0c37.243 0 66.417 15.461 66.417 35.198v103.555c0 19.737-29.173 35.197-66.416 35.197-13.389 0-25.735-1.998-36.057-5.473a66.042 66.042 0 01-26.39 5.473 66.04 66.04 0 01-26.391-5.473c-10.323 3.475-22.67 5.473-36.058 5.473C29.175 173.95 0 158.49 0 138.753V76.698c0-19.736 29.175-35.197 66.42-35.197 13.169 0 25.326 1.934 35.544 5.305a65.939 65.939 0 0122.93-5.576v-6.032zm66.422-27.25c-16.075 0-31.127 3.1-42.38 8.725-10.228 5.114-16.094 11.865-16.094 18.524 0 2.058.563 4.124 1.64 6.15 16.564 1.392 31.419 8.888 42.3 20.227 4.692.576 9.564.873 14.534.873 16.074 0 31.123-3.1 42.376-8.726 10.228-5.114 16.092-11.866 16.092-18.523 0-6.659-5.864-13.411-16.092-18.525-11.251-5.626-26.301-8.725-42.376-8.725zM113.317 163.9a58.34 58.34 0 0015.552 2.103 58.41 58.41 0 0015.553-2.102 58.085 58.085 0 0010.47-4.017 58.713 58.713 0 0012.829-8.693 59.01 59.01 0 006.62-6.941 58.631 58.631 0 007.575-12.135 58.11 58.11 0 005.269-20.283c.104-1.421.159-2.855.159-4.302 0-1.226-.043-2.441-.118-3.649a58.056 58.056 0 00-5.458-21.252 58.675 58.675 0 00-8.887-13.554 58.91 58.91 0 00-12.797-10.968 58.214 58.214 0 00-15.719-6.963 58.204 58.204 0 00-11.522-1.95 58.457 58.457 0 00-2.77-.122c-.4-.008-.801-.016-1.203-.016-1.336 0-2.661.05-3.975.138a58.12 58.12 0 00-12.075 2.101 58.165 58.165 0 00-10.42 4.103c-17.953 9.153-30.577 27.31-31.887 48.482a59.276 59.276 0 00-.117 3.649c0 1.447.055 2.881.158 4.301a58.088 58.088 0 005.267 20.283 58.637 58.637 0 007.577 12.136 58.987 58.987 0 006.62 6.94 58.69 58.69 0 0012.829 8.693 58.06 58.06 0 0010.47 4.018zM66.421 49.449c-16.076 0-31.127 3.099-42.38 8.724C13.815 63.287 7.948 70.04 7.95 76.7c0 6.657 5.866 13.408 16.094 18.523 10.344 5.172 23.897 8.207 38.505 8.664C63.717 82.382 75.16 63.57 92.042 52.279c-7.89-1.852-16.594-2.83-25.621-2.83zm-1.776 75.039a66.157 66.157 0 01-2.055-12.649c-23.905-.687-44.07-7.783-54.642-18.188v3.6c0 6.658 5.867 13.41 16.094 18.525 10.838 5.418 25.198 8.492 40.603 8.712zm2.306 7.959a46.82 46.82 0 01-.53.003c-25.573 0-47.34-7.29-58.473-18.246v3.995c0 6.657 5.867 13.409 16.094 18.523 11.254 5.627 26.305 8.727 42.379 8.727 2.623 0 5.219-.084 7.775-.247a66.398 66.398 0 01-6.895-12.758l-.35.003zm-42.909 24.828c11.254 5.628 26.305 8.727 42.379 8.727 9.194 0 18.051-1.016 26.057-2.936a66.864 66.864 0 01-12.287-10.397c-4.43.477-9.034.729-13.77.729-25.573 0-47.34-7.289-58.473-18.246v3.601c0 6.657 5.867 13.408 16.094 18.522zm209.65 0c10.228-5.114 16.092-11.865 16.092-18.522v-3.601c-11.131 10.957-32.897 18.246-58.468 18.246-4.734 0-9.338-.252-13.769-.729a66.972 66.972 0 01-12.287 10.397c8.005 1.92 16.863 2.936 26.056 2.936 16.074 0 31.123-3.099 42.376-8.727zm0-20.553c10.228-5.114 16.092-11.866 16.092-18.523v-3.995c-11.131 10.957-32.897 18.246-58.468 18.246-.176 0-.353-.001-.529-.003l-.35-.003a66.384 66.384 0 01-6.896 12.758c2.557.163 5.152.247 7.775.247 16.074 0 31.123-3.1 42.376-8.727zm0-20.947c10.228-5.114 16.092-11.865 16.092-18.524V93.65c-10.571 10.406-30.734 17.501-54.637 18.188a66.011 66.011 0 01-2.054 12.649c15.403-.219 29.762-3.293 40.599-8.712zm0-20.554c10.228-5.114 16.092-11.865 16.092-18.523v-3.994c-10.858 10.687-31.835 17.884-56.592 18.23a65.973 65.973 0 011.998 12.951c14.605-.457 28.159-3.492 38.502-8.664zm0-20.947c10.228-5.114 16.092-11.865 16.092-18.523v-3.6c-11.131 10.956-32.897 18.245-58.468 18.245-2.558 0-5.076-.076-7.551-.218a66.23 66.23 0 016.828 12.818l.272.002c.15.002.3.003.451.003 16.074 0 31.123-3.1 42.376-8.727zm-80.187 43.561a18.469 18.469 0 011.603 7.504c0 .525-.03 1.044-.073 1.556-.336 3.916-1.916 7.55-4.426 10.625-1.779 2.181-4.026 4.076-6.614 5.597a28.842 28.842 0 01-8.591 3.315c-.839.18-1.692.325-2.561.435v5.192a3.955 3.955 0 01-.993 2.623 3.963 3.963 0 01-5.962 0 3.96 3.96 0 01-.993-2.623v-5.192a31.129 31.129 0 01-2.56-.435 28.831 28.831 0 01-8.591-3.315c-2.588-1.521-4.835-3.416-6.615-5.597-2.509-3.075-4.09-6.709-4.425-10.626a17.837 17.837 0 01-.075-1.557 3.973 3.973 0 017.668-1.458c.179.452.281.943.281 1.458 0 3.094 1.35 5.954 3.628 8.261 1.904 1.926 4.456 3.465 7.409 4.434 1.045.342 2.142.611 3.277.804h.002V111.24a30.176 30.176 0 01-6.707-1.644c-3.549-1.319-6.681-3.271-9.189-5.686-2.022-1.946-3.64-4.189-4.738-6.641a18.43 18.43 0 01-1.631-7.56c0-10.07 8.271-18.564 19.467-21.05a30.45 30.45 0 012.797-.49v-5.18c0-.807.243-1.557.656-2.185a5.92 5.92 0 01.165-.226 3.965 3.965 0 013.154-1.563 3.974 3.974 0 013.974 3.975v5.18c10.814 1.37 19.476 8.242 21.705 17.057.366 1.448.561 2.947.561 4.483a3.975 3.975 0 01-7.949 0c0-6.6-6.137-12.132-14.317-13.508v27.591a30.81 30.81 0 012.049.336c8.611 1.688 15.601 6.903 18.614 13.706zm-36.879-17.856c1.955 1.334 4.291 2.354 6.868 2.955.46.108.927.198 1.401.277V76.203a.04.04 0 00-.009.002h-.004c-8.175 1.382-14.304 6.911-14.304 13.507 0 1.432.288 2.815.826 4.117.99 2.393 2.817 4.508 5.222 6.15zm26.905 33.621c2.278-2.307 3.629-5.167 3.629-8.261 0-.558-.049-1.109-.134-1.65-.925-5.859-6.696-10.602-14.184-11.864v27.013h.003c1.135-.19 2.232-.46 3.278-.803 2.952-.969 5.504-2.508 7.408-4.435z" fill="url(#GQXNRpCjyUqZa)"/>
  <defs>
    <linearGradient id="GQXNRpCjyUqZa" x1="210.678" y1="299.374" x2="384.274" y2="-43.769" gradientUnits="userSpaceOnUse">
      <stop stop-color="#61E5F7"/>
      <stop offset="1" stop-color="#3B2AFF"/>
    </linearGradient>
  </defs>
</svg>
